<svg width="495" height="156" viewBox="0 0 495 156" xmlns="http://www.w3.org/2000/svg" role="img" aria-label="Vanta's achievements">
<title>Vanta's achievements: 2 of 7 unlocked</title>
<style>
@keyframes badgePulse { 0%,100%{filter:drop-shadow(0 0 2px currentColor)} 50%{filter:drop-shadow(0 0 6px currentColor)} }
.badgeGlow{animation:badgePulse 2.6s ease-in-out infinite; color:#7f77dd}
</style>
<defs>
<linearGradient id="bgGrad" x1="0" y1="0" x2="1" y2="1">
<stop offset="0%" stop-color="#12121f"/>
<stop offset="55%" stop-color="#1a1030"/>
<stop offset="100%" stop-color="#0d1f2e"/>
</linearGradient>
<linearGradient id="hexGrad" x1="0" y1="0" x2="1" y2="1">
<stop offset="0%" stop-color="#7f77dd"/>
<stop offset="100%" stop-color="#5dcaa5"/>
</linearGradient>
</defs>
<rect x="0" y="0" width="495" height="156" rx="14" fill="url(#bgGrad)"/>
<text x="24" y="28" font-size="14" font-weight="500" fill="#f2f0ff" font-family="sans-serif">achievements</text>
<text x="471" y="28" font-size="11" fill="#8b87b8" text-anchor="end" font-family="sans-serif">2/7 unlocked</text>

<g transform="translate(55.9,92)" class="badgeGlow">
<polygon points="0.0,-30.0 26.0,-15.0 26.0,15.0 0.0,30.0 -26.0,15.0 -26.0,-15.0" fill="url(#hexGrad)" stroke="#5dcaa5" stroke-width="1.5"/>
<g><circle r="4" fill="none" stroke="#12121f" stroke-width="1.8"/><line x1="-9" y1="0" x2="-4" y2="0" stroke="#12121f" stroke-width="1.8"/><line x1="4" y1="0" x2="9" y2="0" stroke="#12121f" stroke-width="1.8"/></g>
</g>
<text x="55.9" y="140" font-size="10.5" fill="#f2f0ff" text-anchor="middle" font-family="sans-serif" font-weight="500">Century Club</text>
<g transform="translate(119.8,92)">
<polygon points="0.0,-30.0 26.0,-15.0 26.0,15.0 0.0,30.0 -26.0,15.0 -26.0,-15.0" fill="#2a2645" stroke="none" stroke-width="0"/>
<g><rect x="-4.5" y="-1" width="9" height="7" rx="1.5" fill="#4f4a75"/><path d="M-3,-1 L-3,-3.5 C-3,-6 3,-6 3,-3.5 L3,-1" fill="none" stroke="#4f4a75" stroke-width="1.6"/></g>
</g>
<text x="119.8" y="140" font-size="10.5" fill="#8b87b8" text-anchor="middle" font-family="sans-serif" font-weight="400">Star Magnet</text>
<g transform="translate(183.6,92)">
<polygon points="0.0,-30.0 26.0,-15.0 26.0,15.0 0.0,30.0 -26.0,15.0 -26.0,-15.0" fill="#2a2645" stroke="none" stroke-width="0"/>
<g><rect x="-4.5" y="-1" width="9" height="7" rx="1.5" fill="#4f4a75"/><path d="M-3,-1 L-3,-3.5 C-3,-6 3,-6 3,-3.5 L3,-1" fill="none" stroke="#4f4a75" stroke-width="1.6"/></g>
</g>
<text x="183.6" y="140" font-size="10.5" fill="#8b87b8" text-anchor="middle" font-family="sans-serif" font-weight="400">On Fire</text>
<g transform="translate(247.5,92)" class="badgeGlow">
<polygon points="0.0,-30.0 26.0,-15.0 26.0,15.0 0.0,30.0 -26.0,15.0 -26.0,-15.0" fill="url(#hexGrad)" stroke="#5dcaa5" stroke-width="1.5"/>
<g><line x1="-6" y1="-9" x2="-6" y2="9" stroke="#12121f" stroke-width="1.8"/><path d="M-6,-9 L7,-6 L-6,-2 Z" fill="#12121f"/></g>
</g>
<text x="247.5" y="140" font-size="10.5" fill="#f2f0ff" text-anchor="middle" font-family="sans-serif" font-weight="500">Marathoner</text>
<g transform="translate(311.4,92)">
<polygon points="0.0,-30.0 26.0,-15.0 26.0,15.0 0.0,30.0 -26.0,15.0 -26.0,-15.0" fill="#2a2645" stroke="none" stroke-width="0"/>
<g><rect x="-4.5" y="-1" width="9" height="7" rx="1.5" fill="#4f4a75"/><path d="M-3,-1 L-3,-3.5 C-3,-6 3,-6 3,-3.5 L3,-1" fill="none" stroke="#4f4a75" stroke-width="1.6"/></g>
</g>
<text x="311.4" y="140" font-size="10.5" fill="#8b87b8" text-anchor="middle" font-family="sans-serif" font-weight="400">Builder</text>
<g transform="translate(375.2,92)">
<polygon points="0.0,-30.0 26.0,-15.0 26.0,15.0 0.0,30.0 -26.0,15.0 -26.0,-15.0" fill="#2a2645" stroke="none" stroke-width="0"/>
<g><rect x="-4.5" y="-1" width="9" height="7" rx="1.5" fill="#4f4a75"/><path d="M-3,-1 L-3,-3.5 C-3,-6 3,-6 3,-3.5 L3,-1" fill="none" stroke="#4f4a75" stroke-width="1.6"/></g>
</g>
<text x="375.2" y="140" font-size="10.5" fill="#8b87b8" text-anchor="middle" font-family="sans-serif" font-weight="400">Rising Voice</text>
<g transform="translate(439.1,92)">
<polygon points="0.0,-30.0 26.0,-15.0 26.0,15.0 0.0,30.0 -26.0,15.0 -26.0,-15.0" fill="#2a2645" stroke="none" stroke-width="0"/>
<g><rect x="-4.5" y="-1" width="9" height="7" rx="1.5" fill="#4f4a75"/><path d="M-3,-1 L-3,-3.5 C-3,-6 3,-6 3,-3.5 L3,-1" fill="none" stroke="#4f4a75" stroke-width="1.6"/></g>
</g>
<text x="439.1" y="140" font-size="10.5" fill="#8b87b8" text-anchor="middle" font-family="sans-serif" font-weight="400">Polyglot</text>
</svg>