<svg width="495" height="166" viewBox="0 0 495 166" xmlns="http://www.w3.org/2000/svg" role="img" aria-label="Qommo project spotlight">
<title>Qommo project spotlight</title>
<style>
@keyframes barGlow { 0%,100%{opacity:.7} 50%{opacity:1} }
@keyframes arrowNudge { 0%,100%{transform:translateX(0)} 50%{transform:translateX(3px)} }
.barGlow{animation:barGlow 2.4s ease-in-out infinite}
.arrowNudge{animation:arrowNudge 1.6s ease-in-out infinite}
</style>
<defs>
<linearGradient id="pbgGrad" x1="0" y1="0" x2="1" y2="1">
<stop offset="0%" stop-color="#050a06"/>
<stop offset="55%" stop-color="#0a1a0e"/>
<stop offset="100%" stop-color="#04140a"/>
</linearGradient>
<linearGradient id="barGrad" x1="0" y1="0" x2="0" y2="1">
<stop offset="0%" stop-color="#5dcaa5"/>
<stop offset="100%" stop-color="#97c459"/>
</linearGradient>
</defs>
<rect x="0" y="0" width="495" height="166" rx="14" fill="url(#pbgGrad)"/>
<rect x="0" y="0" width="5" height="166" rx="2.5" fill="url(#barGrad)" class="barGlow"/>

<rect x="408.7" y="24" width="62.3" height="22" rx="11" fill="#122a19"/>
<text x="439.9" y="39" font-size="11" fill="#a9e0bb" text-anchor="middle" font-family="sans-serif">active</text>

<text x="24" y="42" font-size="20" font-weight="500" fill="#e4ffe9" font-family="sans-serif">Qommo</text>
<text x="24" y="66" font-size="13" fill="#8fc79c" font-family="sans-serif">Family tree web app with graph-based relationship modeling</text>

<text x="24" y="94" font-size="13" fill="#e4ffe9" font-family="sans-serif" font-weight="500">Neo4j graph queries · directed cycle-safe ancestor linking</text>

<rect x="24.0" y="118.0" width="58.8" height="24" rx="12" fill="#0f2216"/><text x="53.4" y="134.0" font-size="12" fill="#a9e0bb" text-anchor="middle" font-family="sans-serif">React</text>
<rect x="90.8" y="118.0" width="58.8" height="24" rx="12" fill="#0f2216"/><text x="120.2" y="134.0" font-size="12" fill="#a9e0bb" text-anchor="middle" font-family="sans-serif">Neo4j</text>
<rect x="157.6" y="118.0" width="93.6" height="24" rx="12" fill="#0f2216"/><text x="204.4" y="134.0" font-size="12" fill="#a9e0bb" text-anchor="middle" font-family="sans-serif">PostgreSQL</text>
<rect x="259.2" y="118.0" width="72.7" height="24" rx="12" fill="#0f2216"/><text x="295.6" y="134.0" font-size="12" fill="#a9e0bb" text-anchor="middle" font-family="sans-serif">Node.js</text>

<text x="471.0" y="148" font-size="11" fill="#8fc79c" text-anchor="end" font-family="sans-serif" class="arrowNudge">github.com/vanta/qommo &#8594;</text>
</svg>